<svg width="128" height="128" viewBox="0 0 128 128" fill="none" xmlns="http://www.w3.org/2000/svg">
<circle cx="64" cy="64" r="61.5" fill="#F8F9FB" stroke="black" stroke-width="5"/>
<path d="M40.04 102.48C40.0667 102.547 40.08 102.647 40.08 102.78C40.08 102.9 40.08 103 40.08 103.08C40.08 103.187 40.06 103.287 40.02 103.38C39.98 103.473 39.9267 103.56 39.86 103.64C39.74 103.8 39.5667 103.92 39.34 104C39.02 104.107 38.72 104.16 38.44 104.16C38.2933 104.173 38.14 104.18 37.98 104.18C37.82 104.18 37.66 104.193 37.5 104.22H37.42C36.3933 104.233 35.3333 104.233 34.24 104.22C33.9733 104.207 33.6733 104.207 33.34 104.22C33.0067 104.247 32.68 104.24 32.36 104.2C32.04 104.173 31.7467 104.1 31.48 103.98C31.2267 103.847 31.0467 103.64 30.94 103.36C30.9133 103.293 30.8933 103.233 30.88 103.18C30.8667 103.113 30.86 103.047 30.86 102.98C30.8067 102.527 30.7867 102.08 30.8 101.64C30.8133 101.2 30.82 100.767 30.82 100.34L30.86 97.44V94.76C30.86 94.28 30.86 93.8533 30.86 93.48C30.8733 93.1067 30.8867 92.6933 30.9 92.24V92.14C30.9133 92.0067 30.92 91.8733 30.92 91.74C30.9333 91.6067 30.94 91.4733 30.94 91.34C30.9667 91.0333 31.04 90.7733 31.16 90.56C31.24 90.36 31.38 90.2 31.58 90.08C31.7533 89.96 31.96 89.9 32.2 89.9C32.2933 89.9 32.38 89.9067 32.46 89.92C32.5533 89.92 32.64 89.9267 32.72 89.94C32.8 89.9533 32.8733 89.98 32.94 90.02C33.02 90.06 33.1 90.1133 33.18 90.18C33.26 90.2733 33.3333 90.3867 33.4 90.52C33.4533 90.6667 33.4867 90.8133 33.5 90.96C33.5133 91.0533 33.5267 91.14 33.54 91.22C33.5533 91.3 33.56 91.38 33.56 91.46C33.5333 91.54 33.52 91.62 33.52 91.7C33.52 91.78 33.52 91.8533 33.52 91.92V92.28L33.44 101.7L37.4 101.74H38.34C38.42 101.74 38.5067 101.747 38.6 101.76C38.6933 101.76 38.7867 101.767 38.88 101.78C38.9867 101.793 39.08 101.807 39.16 101.82C39.24 101.833 39.32 101.853 39.4 101.88C39.5467 101.92 39.6667 101.987 39.76 102.08C39.9067 102.213 40 102.347 40.04 102.48ZM44.1989 96.42C44.1989 96.7933 44.1989 97.2133 44.1989 97.68C44.2122 98.1467 44.2189 98.6333 44.2189 99.14C44.2189 99.6333 44.2189 100.127 44.2189 100.62C44.2189 101.1 44.2122 101.547 44.1989 101.96C44.1856 102.16 44.1656 102.38 44.1389 102.62C44.1122 102.847 44.0589 103.06 43.9789 103.26C43.8989 103.46 43.7722 103.627 43.5989 103.76C43.4389 103.88 43.2189 103.933 42.9389 103.92C42.5256 103.893 42.2256 103.713 42.0389 103.38C41.8656 103.047 41.7656 102.58 41.7389 101.98C41.7389 101.673 41.7322 101.32 41.7189 100.92C41.7189 100.52 41.7122 100.113 41.6989 99.7C41.6989 99.2867 41.6989 98.8867 41.6989 98.5C41.6989 98.1 41.6989 97.74 41.6989 97.42C41.6989 97.2333 41.6922 97.0067 41.6789 96.74C41.6789 96.4733 41.6856 96.2 41.6989 95.92C41.7122 95.64 41.7456 95.3733 41.7989 95.12C41.8522 94.8533 41.9389 94.6333 42.0589 94.46C42.1522 94.3533 42.2856 94.2733 42.4589 94.22C42.6322 94.1533 42.8122 94.12 42.9989 94.12C43.1989 94.12 43.3856 94.1533 43.5589 94.22C43.7456 94.2867 43.8789 94.38 43.9589 94.5C44.0122 94.58 44.0522 94.6933 44.0789 94.84C44.1056 94.9867 44.1256 95.1533 44.1389 95.34C44.1656 95.5133 44.1789 95.7 44.1789 95.9C44.1922 96.0867 44.1989 96.26 44.1989 96.42ZM43.4389 92.38C43.0256 92.4867 42.6789 92.4467 42.3989 92.26C42.1322 92.06 41.9656 91.7667 41.8989 91.38C41.8456 91.1 41.8656 90.8533 41.9589 90.64C42.0522 90.4267 42.1922 90.2667 42.3789 90.16C42.5656 90.04 42.7789 89.9867 43.0189 90C43.2589 90.0133 43.4989 90.1067 43.7389 90.28C43.9656 90.44 44.1256 90.6267 44.2189 90.84C44.3256 91.0533 44.3589 91.26 44.3189 91.46C44.2922 91.66 44.2056 91.8467 44.0589 92.02C43.9122 92.18 43.7056 92.3 43.4389 92.38ZM54.2563 100.22C54.2563 100.647 54.2429 101.107 54.2163 101.6C54.2029 102.093 54.1829 102.553 54.1563 102.98C54.1563 103.38 54.1363 103.78 54.0963 104.18C54.0696 104.527 54.0163 104.9 53.9363 105.3C53.8563 105.713 53.7429 106.093 53.5963 106.44C53.4096 106.893 53.1563 107.28 52.8363 107.6C52.5163 107.933 52.1029 108.173 51.5963 108.32C51.1696 108.427 50.7696 108.493 50.3963 108.52C50.0229 108.56 49.6229 108.553 49.1963 108.5C48.9163 108.46 48.6163 108.38 48.2963 108.26C47.9763 108.153 47.6763 108.013 47.3963 107.84C47.1163 107.667 46.8696 107.46 46.6563 107.22C46.4429 106.993 46.2963 106.733 46.2163 106.44C46.1229 106.08 46.1163 105.767 46.1963 105.5C46.2896 105.233 46.4296 105.04 46.6163 104.92C46.8029 104.8 47.0229 104.78 47.2763 104.86C47.5296 104.94 47.7696 105.147 47.9963 105.48C48.1563 105.72 48.3896 105.913 48.6963 106.06C49.0029 106.207 49.3296 106.293 49.6763 106.32C50.0229 106.347 50.3563 106.3 50.6763 106.18C51.0096 106.073 51.2696 105.88 51.4563 105.6C51.5896 105.4 51.6829 105.113 51.7363 104.74C51.8029 104.367 51.8429 104 51.8563 103.64C51.1763 103.92 50.4763 104.027 49.7563 103.96C49.0496 103.88 48.4029 103.66 47.8163 103.3C47.2429 102.927 46.7763 102.433 46.4163 101.82C46.0696 101.193 45.9229 100.487 45.9763 99.7C46.0163 99.02 46.1563 98.38 46.3963 97.78C46.6496 97.18 47.0629 96.68 47.6363 96.28C48.1029 95.96 48.6296 95.7533 49.2163 95.66C49.8029 95.5533 50.3696 95.5 50.9163 95.5C51.2363 95.5 51.5496 95.5 51.8563 95.5C52.1763 95.5 52.4696 95.54 52.7363 95.62C53.0029 95.7 53.2429 95.8333 53.4563 96.02C53.6696 96.2067 53.8296 96.48 53.9363 96.84C54.1096 97.4 54.2029 97.9533 54.2163 98.5C54.2429 99.0467 54.2563 99.62 54.2563 100.22ZM50.3963 101.88C50.5296 101.88 50.6563 101.867 50.7763 101.84C50.9096 101.813 51.0363 101.78 51.1563 101.74C51.3829 101.66 51.5496 101.553 51.6563 101.42C51.7763 101.287 51.8563 101.14 51.8963 100.98C51.9363 100.807 51.9496 100.62 51.9363 100.42C51.9363 100.22 51.9363 100.013 51.9363 99.8C51.9363 99.6267 51.9296 99.4333 51.9163 99.22C51.9163 99.0067 51.9029 98.8067 51.8763 98.62C51.8496 98.42 51.8096 98.2467 51.7563 98.1C51.7029 97.9533 51.6229 97.86 51.5163 97.82C51.3296 97.7667 51.1163 97.7333 50.8763 97.72C50.6363 97.6933 50.3963 97.6933 50.1562 97.72C49.9163 97.7333 49.6829 97.78 49.4563 97.86C49.2429 97.9267 49.0629 98.02 48.9163 98.14C48.7163 98.3133 48.5629 98.5267 48.4563 98.78C48.3496 99.0333 48.2829 99.3 48.2563 99.58C48.2429 99.86 48.2629 100.133 48.3163 100.4C48.3829 100.667 48.4963 100.907 48.6563 101.12C48.8429 101.387 49.0963 101.58 49.4163 101.7C49.7363 101.82 50.0629 101.88 50.3963 101.88ZM63.6781 100.06C63.6915 100.327 63.6981 100.607 63.6981 100.9C63.6981 101.18 63.6915 101.44 63.6781 101.68C63.6648 102.04 63.6448 102.373 63.6181 102.68C63.5915 102.973 63.5381 103.227 63.4581 103.44C63.3781 103.64 63.2515 103.793 63.0781 103.9C62.9181 103.993 62.6915 104.02 62.3981 103.98C62.0915 103.94 61.8715 103.793 61.7381 103.54C61.6048 103.287 61.5115 103 61.4581 102.68C61.4181 102.347 61.4048 102.013 61.4181 101.68C61.4315 101.347 61.4315 101.087 61.4181 100.9C61.4048 100.607 61.3915 100.273 61.3781 99.9C61.3781 99.5133 61.3381 99.1533 61.2581 98.82C61.1915 98.4733 61.0715 98.18 60.8981 97.94C60.7248 97.7 60.4648 97.5733 60.1181 97.56C59.6781 97.5333 59.3381 97.5667 59.0981 97.66C58.8715 97.7533 58.7048 97.8933 58.5981 98.08C58.4915 98.2533 58.4248 98.4667 58.3981 98.72C58.3848 98.9733 58.3581 99.2467 58.3181 99.54L58.2981 100.32V101.78C58.2981 102.02 58.2915 102.273 58.2781 102.54C58.2781 102.793 58.2381 103.027 58.1581 103.24C58.0781 103.453 57.9515 103.633 57.7781 103.78C57.6181 103.927 57.3781 104 57.0581 104C56.6581 104 56.3581 103.873 56.1581 103.62C55.9715 103.353 55.8781 103.027 55.8781 102.64V91.14C55.8781 91.06 55.8781 90.9867 55.8781 90.92C55.8915 90.84 55.9048 90.76 55.9181 90.68C55.9448 90.6 55.9648 90.5267 55.9781 90.46C55.9915 90.38 56.0115 90.3067 56.0381 90.24C56.0781 90.1067 56.1448 90.0067 56.2381 89.94C56.3048 89.8733 56.3715 89.82 56.4381 89.78C56.5048 89.74 56.5781 89.7133 56.6581 89.7C56.7248 89.6867 56.7981 89.68 56.8781 89.68C56.9581 89.6667 57.0381 89.66 57.1181 89.66C57.3181 89.66 57.5115 89.72 57.6981 89.84C57.7781 89.8933 57.8515 89.9533 57.9181 90.02C57.9848 90.0733 58.0381 90.1533 58.0781 90.26C58.1848 90.5133 58.2381 90.7533 58.2381 90.98C58.2515 91.0467 58.2581 91.1467 58.2581 91.28C58.2715 91.4 58.2781 91.5267 58.2781 91.66C58.2781 91.7933 58.2781 91.9267 58.2781 92.06C58.2915 92.18 58.2981 92.2733 58.2981 92.34V92.44C58.3115 92.8667 58.3181 93.3 58.3181 93.74C58.3181 94.18 58.3181 94.6267 58.3181 95.08V95.42C58.8781 95.2333 59.4648 95.1467 60.0781 95.16C60.6915 95.16 61.2381 95.28 61.7181 95.52C62.2115 95.7733 62.5848 96.06 62.8381 96.38C63.1048 96.7 63.2981 97.0533 63.4181 97.44C63.5381 97.8267 63.6048 98.24 63.6181 98.68C63.6448 99.12 63.6648 99.58 63.6781 100.06ZM72.8361 95.18C72.9428 95.4333 72.9494 95.7133 72.8561 96.02C72.7761 96.3267 72.6228 96.5267 72.3961 96.62C72.2761 96.6733 72.1161 96.72 71.9161 96.76C71.7161 96.7867 71.4961 96.8133 71.2561 96.84C71.0294 96.8667 70.8028 96.8867 70.5761 96.9C70.3494 96.9133 70.1561 96.92 69.9961 96.92C70.0094 97.32 70.0228 97.7333 70.0361 98.16C70.0494 98.5733 70.0628 98.98 70.0761 99.38C70.0894 99.78 70.0961 100.167 70.0961 100.54C70.0961 100.9 70.0894 101.227 70.0761 101.52C70.0761 101.72 70.0761 101.953 70.0761 102.22C70.0761 102.473 70.0561 102.72 70.0161 102.96C69.9894 103.2 69.9428 103.413 69.8761 103.6C69.8094 103.773 69.7094 103.887 69.5761 103.94C69.1628 104.113 68.7828 104.16 68.4361 104.08C68.1028 104.013 67.8628 103.873 67.7161 103.66C67.6094 103.487 67.5294 103.287 67.4761 103.06C67.4228 102.82 67.3828 102.58 67.3561 102.34C67.3428 102.087 67.3361 101.847 67.3361 101.62C67.3494 101.38 67.3561 101.173 67.3561 101C67.3694 100.44 67.3761 99.8067 67.3761 99.1C67.3894 98.38 67.3961 97.66 67.3961 96.94H67.0961C66.9361 96.94 66.7294 96.94 66.4761 96.94C66.2361 96.9267 65.9894 96.9067 65.7361 96.88C65.4961 96.84 65.2694 96.7933 65.0561 96.74C64.8428 96.6733 64.6894 96.58 64.5961 96.46C64.4494 96.2867 64.3561 96.1 64.3161 95.9C64.2894 95.7 64.3028 95.5133 64.3561 95.34C64.4228 95.1533 64.5228 94.9933 64.6561 94.86C64.7894 94.7133 64.9428 94.62 65.1161 94.58C65.3561 94.5133 65.6961 94.48 66.1361 94.48C66.5761 94.4667 66.9894 94.4667 67.3761 94.48C67.3628 94.3467 67.3561 94.22 67.3561 94.1C67.3561 93.9667 67.3494 93.84 67.3361 93.72C67.3228 93.56 67.3161 93.36 67.3161 93.12C67.3161 92.8667 67.3294 92.62 67.3561 92.38C67.3961 92.1267 67.4561 91.8933 67.5361 91.68C67.6161 91.4533 67.7294 91.28 67.8761 91.16C68.0761 91 68.2761 90.9133 68.4761 90.9C68.6894 90.8733 68.8828 90.9 69.0561 90.98C69.2428 91.06 69.3961 91.18 69.5161 91.34C69.6494 91.4867 69.7428 91.6533 69.7961 91.84C69.8361 92 69.8694 92.1933 69.8961 92.42C69.9228 92.6333 69.9361 92.86 69.9361 93.1C69.9494 93.34 69.9561 93.58 69.9561 93.82C69.9561 94.06 69.9561 94.28 69.9561 94.48H70.1561C70.3561 94.48 70.5894 94.4733 70.8561 94.46C71.1228 94.4467 71.3828 94.4533 71.6361 94.48C71.9028 94.5067 72.1428 94.5733 72.3561 94.68C72.5694 94.7733 72.7294 94.94 72.8361 95.18ZM85.0505 95.96C85.0771 96.4 85.0705 96.8533 85.0305 97.32C85.0038 97.7867 84.9571 98.24 84.8905 98.68C84.7571 99.44 84.5105 100.18 84.1505 100.9C83.7905 101.62 83.2638 102.233 82.5705 102.74C81.8505 103.273 81.0305 103.64 80.1105 103.84C79.1905 104.027 78.2771 104.14 77.3705 104.18C77.0638 104.207 76.7505 104.213 76.4305 104.2C76.1238 104.2 75.8238 104.167 75.5305 104.1C75.2905 104.06 75.1105 103.987 74.9905 103.88C74.9238 103.84 74.8705 103.787 74.8305 103.72C74.7905 103.653 74.7571 103.587 74.7305 103.52C74.6905 103.453 74.6571 103.387 74.6305 103.32C74.6171 103.24 74.5971 103.16 74.5705 103.08C74.5571 103.013 74.5438 102.953 74.5305 102.9C74.5305 102.833 74.5305 102.773 74.5305 102.72V91.3C74.5305 91.2067 74.5305 91.12 74.5305 91.04C74.5305 90.96 74.5438 90.88 74.5705 90.8C74.5971 90.6133 74.6371 90.46 74.6905 90.34C74.7438 90.18 74.8171 90.0667 74.9105 90C74.9905 89.9333 75.0705 89.8867 75.1505 89.86C75.2305 89.82 75.3038 89.7867 75.3705 89.76C75.4505 89.7333 75.5305 89.7333 75.6105 89.76C75.7038 89.7733 75.8038 89.7533 75.9105 89.7L79.2505 89.78C80.1305 89.8067 80.9171 90.0133 81.6105 90.4C82.3038 90.7733 82.8971 91.2533 83.3905 91.84C83.8838 92.4267 84.2705 93.0867 84.5505 93.82C84.8305 94.54 84.9971 95.2533 85.0505 95.96ZM81.3305 99.76C81.5838 99.36 81.7705 98.9 81.8905 98.38C82.0105 97.86 82.0638 97.3333 82.0505 96.8C82.0371 96.2533 81.9638 95.7267 81.8305 95.22C81.6971 94.7 81.5105 94.24 81.2705 93.84C81.0838 93.5467 80.8438 93.3067 80.5505 93.12C80.2571 92.9333 79.9305 92.7933 79.5705 92.7C79.2105 92.5933 78.8238 92.52 78.4105 92.48C78.0105 92.44 77.6171 92.42 77.2305 92.42C77.2438 92.8067 77.2505 93.18 77.2505 93.54C77.2505 93.9 77.2505 94.28 77.2505 94.68C77.2371 95.16 77.2305 95.6267 77.2305 96.08C77.2305 96.5333 77.2305 96.9733 77.2305 97.4V101.48C77.6438 101.467 78.0371 101.447 78.4105 101.42C78.7971 101.38 79.1638 101.3 79.5105 101.18C79.8705 101.06 80.1971 100.893 80.4905 100.68C80.7971 100.453 81.0771 100.147 81.3305 99.76ZM94.5784 96.62C94.9651 96.8733 95.2918 97.1733 95.5584 97.52C95.8384 97.8533 96.0584 98.2667 96.2184 98.76C96.3918 99.3067 96.4784 99.86 96.4784 100.42C96.4918 100.967 96.3918 101.48 96.1784 101.96C95.9784 102.427 95.6518 102.84 95.1984 103.2C94.7584 103.547 94.1784 103.793 93.4584 103.94C93.0718 104.033 92.6184 104.107 92.0984 104.16C91.5784 104.213 91.1118 104.24 90.6984 104.24C90.1784 104.253 89.6384 104.253 89.0784 104.24C88.5318 104.24 87.9984 104.187 87.4784 104.08C87.2518 104.013 87.0851 103.9 86.9784 103.74C86.8851 103.567 86.8184 103.373 86.7784 103.16C86.7251 103.04 86.6984 102.92 86.6984 102.8V91.44C86.6984 91.0667 86.7718 90.78 86.9184 90.58C87.0784 90.3667 87.2851 90.2133 87.5384 90.12C87.7918 90.0133 88.0784 89.9533 88.3984 89.94C88.7184 89.9133 89.0518 89.9 89.3984 89.9C89.6651 89.9 89.9318 89.9 90.1984 89.9C90.4784 89.8867 90.7584 89.8867 91.0384 89.9C91.4784 89.9133 91.9318 89.9533 92.3984 90.02C92.8784 90.0733 93.3318 90.18 93.7584 90.34C93.9584 90.4067 94.1718 90.5 94.3984 90.62C94.6251 90.7267 94.8051 90.86 94.9384 91.02C95.3651 91.4067 95.6784 91.86 95.8784 92.38C96.0918 92.8867 96.1851 93.4067 96.1584 93.94C96.1318 94.46 95.9851 94.96 95.7184 95.44C95.4651 95.92 95.0851 96.3133 94.5784 96.62ZM91.0784 101.92C91.4918 101.893 91.9118 101.847 92.3384 101.78C92.7651 101.713 93.0584 101.587 93.2184 101.4C93.3918 101.187 93.5118 100.94 93.5784 100.66C93.6584 100.367 93.6784 100.073 93.6384 99.78C93.6118 99.4733 93.5251 99.1867 93.3784 98.92C93.2451 98.64 93.0651 98.42 92.8384 98.26C92.5318 98.02 92.1784 97.8667 91.7784 97.8C91.3784 97.72 90.9851 97.68 90.5984 97.68C90.4118 97.68 90.2384 97.6867 90.0784 97.7C89.9318 97.7 89.7984 97.72 89.6784 97.76C89.5718 97.7867 89.4918 97.8467 89.4384 97.94C89.3851 98.0333 89.3584 98.1733 89.3584 98.36C89.3851 98.7067 89.3851 99.0533 89.3584 99.4C89.3318 99.7467 89.3184 100.08 89.3184 100.4C89.3184 100.587 89.3118 100.793 89.2984 101.02C89.2984 101.233 89.3718 101.413 89.5184 101.56C89.6651 101.707 89.8784 101.807 90.1584 101.86C90.4384 101.913 90.7451 101.933 91.0784 101.92ZM91.4784 92.32C91.0651 92.3067 90.7184 92.3 90.4384 92.3C90.1718 92.2867 89.9584 92.3067 89.7984 92.36C89.6518 92.4 89.5451 92.5 89.4784 92.66C89.4251 92.8067 89.4051 93.0333 89.4184 93.34C89.4184 93.5933 89.4118 93.8467 89.3984 94.1C89.3984 94.34 89.3984 94.58 89.3984 94.82C89.3984 95.0867 89.4851 95.2867 89.6584 95.42C89.8318 95.54 90.0451 95.6133 90.2984 95.64C90.5651 95.6667 90.8384 95.6667 91.1184 95.64C91.4118 95.6133 91.6651 95.58 91.8784 95.54C92.3584 95.46 92.7251 95.3 92.9784 95.06C93.2451 94.8067 93.3984 94.44 93.4384 93.96C93.4918 93.36 93.3318 92.9467 92.9584 92.72C92.5984 92.48 92.1051 92.3467 91.4784 92.32Z" fill="black"/>
<path d="M77.8006 53.6039L77.8035 53.6003C81.523 48.8808 84.9105 43.989 87.1555 38.3839C87.5865 37.308 87.9449 36.2031 88.2967 35.1187C88.3321 35.0095 88.3674 34.9005 88.4028 34.7918C88.4161 34.7508 88.4297 34.7167 88.448 34.6706C88.4613 34.6368 88.4773 34.5966 88.4976 34.5426C88.5359 34.4406 88.5858 34.2967 88.6045 34.1419C88.6237 33.9827 88.6151 33.7677 88.4871 33.5628C88.3578 33.3556 88.1548 33.2358 87.9414 33.1701C87.7342 33.1064 87.5147 33.1063 87.31 33.2013C87.1175 33.2907 86.9953 33.438 86.9191 33.5587C86.8429 33.6793 86.7911 33.808 86.7548 33.906C86.7316 33.969 86.7177 34.0095 86.706 34.0438C86.6935 34.0804 86.6834 34.1098 86.667 34.1517L87.0888 34.317L86.667 34.1517C85.4279 37.3125 83.8382 40.2995 82.0159 43.1705C74.658 54.7627 65.0983 64.1532 53.563 71.5787C49.1896 74.3939 44.7963 77.0472 39.8755 78.6445C37.8661 79.2967 35.8683 79.7862 33.7937 79.7215C33.2825 79.7056 32.9718 79.5804 32.7922 79.4209C32.624 79.2715 32.5047 79.0332 32.5001 78.6308C32.4957 78.2338 32.5985 78.0499 32.7299 77.9396C32.8884 77.8065 33.1905 77.6928 33.7565 77.6594C36.1383 77.5185 38.4325 76.9606 40.6742 76.3249C40.9628 76.2431 41.3457 76.1095 41.5707 75.784C41.8234 75.4184 41.7736 74.9847 41.6238 74.5739C41.1031 73.1457 41.4059 71.6835 41.8435 70.1301C42.3859 68.2043 43.3223 66.4668 44.5899 64.9126C44.379 65.6554 44.1954 66.4069 44.096 67.1808C43.8301 69.2514 44.0757 71.251 44.6525 73.2055C44.6605 73.2325 44.6684 73.2626 44.6797 73.3044C44.6901 73.3434 44.7029 73.3907 44.7176 73.4394C44.746 73.5333 44.7893 73.6592 44.8607 73.7794C44.9336 73.902 45.0518 74.0458 45.2408 74.1338C45.436 74.2247 45.6443 74.2272 45.8402 74.1771C46.0268 74.1294 46.202 74.0395 46.3362 73.888C46.4704 73.7365 46.5281 73.5634 46.5493 73.4114C46.5825 73.1724 46.5289 72.91 46.4976 72.7564C46.4941 72.7393 46.4909 72.7236 46.4881 72.7095C45.5836 68.1012 46.8958 64.1411 50.1383 60.8407C52.1361 58.8072 54.1944 56.8506 56.26 54.8869C57.5343 53.6756 58.8114 52.4615 60.0788 51.2252C63.3168 48.0665 66.3087 44.6832 68.9754 41.0137C68.9637 41.1445 68.9519 41.2757 68.94 41.4072C68.7316 43.7123 68.514 46.1205 69.2292 48.5078L69.3729 48.9872L69.8522 48.8431C70.3219 48.7019 70.6234 48.4441 70.7533 48.0741C70.8098 47.9131 70.8229 47.7591 70.8269 47.6432C70.8288 47.5896 70.8288 47.5368 70.8288 47.4943L70.8288 47.4842C70.8289 47.4364 70.8291 47.4016 70.8306 47.3703C70.9846 44.1235 71.4474 41.013 72.9228 38.1357C74.4833 35.0923 76.6421 32.6243 79.5265 30.8053C79.665 30.718 79.8157 30.6433 79.9824 30.5678C79.9872 30.5978 79.992 30.6278 79.9968 30.658C80.2894 32.4902 80.6097 34.4962 82.0384 36.097L82.6498 36.7821L82.8935 35.8967C83.0596 35.2932 83.0308 34.725 82.9609 34.2119C82.9331 34.0081 82.8973 33.8039 82.8636 33.6114C82.8554 33.5646 82.8474 33.5185 82.8395 33.4733C82.7986 33.236 82.7634 33.0145 82.7444 32.797C82.5095 30.1 83.0865 27.6954 84.8368 25.698C86.3477 23.9738 87.7207 22.1223 88.2729 19.759C90.975 22.1697 92.8475 24.9914 93.4545 28.5752C94.0974 32.3717 92.7284 35.6335 90.308 38.675L89.8032 39.3095L90.5968 39.4757C91.1629 39.5943 91.6608 39.5303 92.1842 39.1933C92.6606 38.8866 93.1482 38.3585 93.7588 37.6157C94.24 37.0302 94.6436 36.3988 95.0417 35.7034C95.2348 36.5642 95.25 37.3973 95.2425 38.2453C95.2134 41.544 94.3351 44.3812 92.6295 46.6179C90.9248 48.8535 88.3647 50.5273 84.9045 51.4503C84.8388 51.4679 84.7797 51.4801 84.7073 51.4952C84.6643 51.5041 84.6167 51.514 84.5601 51.5266C84.4252 51.5566 84.2637 51.5975 84.0986 51.6682C83.7443 51.8197 83.4211 52.0878 83.1891 52.5734L82.9196 53.1373L83.5289 53.2764C85.335 53.6888 86.9811 53.2814 88.4755 52.9115C88.5833 52.8848 88.6904 52.8584 88.7966 52.8324C90.2153 52.4855 91.5275 51.851 92.7536 51.2246C90.0987 58.0849 86.1629 64.0416 80.3803 68.6168C76.749 71.49 72.4698 72.5159 67.8185 72.2216C66.1914 72.1186 64.5925 71.9387 63.0185 71.5898L62.9142 72.0603L63.0185 71.5898C63.0004 71.5857 62.9765 71.579 62.9476 71.5708C62.7303 71.5094 62.2281 71.3675 61.7399 71.6966L61.5131 71.8495L61.5196 72.1231C61.5321 72.6472 61.7793 72.9953 62.0996 73.2202C62.32 73.3749 62.5989 73.4809 62.7907 73.5538C62.8337 73.5701 62.8723 73.5847 62.9049 73.5979C64.639 74.299 66.4649 74.6069 68.2306 74.9046C68.333 74.9219 68.4353 74.9391 68.5374 74.9564C69.2905 75.084 70.0429 75.111 70.7636 75.1291C70.8363 75.131 70.9086 75.1327 70.9806 75.1344C71.3524 75.1434 71.715 75.1521 72.0728 75.1718C72.0688 75.1744 72.065 75.1771 72.0613 75.1797C67.8119 78.1182 63.2012 80.2465 58.1438 81.1746C55.0582 81.7408 52.1058 81.2444 49.5705 79.2479C49.3504 79.0745 49.1427 78.8995 48.9547 78.7141C48.6346 78.3986 48.4269 78.1826 48.3024 78.0172C48.2555 77.9549 48.2303 77.9124 48.217 77.8861C48.2367 77.8648 48.272 77.8313 48.3329 77.7849C48.4955 77.6609 48.7478 77.5124 49.1298 77.2981L48.8851 76.8621L49.1298 77.2981C60.084 71.1515 69.8372 63.5203 77.8006 53.6039Z" fill="#FFCE23" stroke="black"/>
<path d="M50.5468 84.2777L50.5561 84.2841L50.5656 84.2902C50.8139 84.4477 51.0541 84.5994 51.2907 84.7482C51.1722 84.7408 51.0473 84.7289 50.9163 84.7122C50.2116 84.6222 49.4006 84.403 48.5969 84.0918C47.794 83.781 47.0146 83.3846 46.3708 82.95C45.9058 82.6361 45.5311 82.3154 45.2671 82.008C45.6636 81.7518 46.0971 81.5566 46.568 81.3447C46.7805 81.249 47.0007 81.1499 47.2284 81.0402L47.2285 81.0402C47.2395 81.0349 47.2483 81.0313 47.2548 81.029C47.2727 81.0421 47.3007 81.0671 47.3422 81.114C47.3759 81.1519 47.4047 81.1877 47.4404 81.232C47.4581 81.254 47.4775 81.2782 47.5001 81.3057L47.5001 81.3058C48.3693 82.3675 49.3108 83.4131 50.5468 84.2777ZM47.2704 81.0248C47.2704 81.0248 47.27 81.0249 47.2691 81.0249L47.2704 81.0248Z" fill="#FFCE23" stroke="black"/>
</svg>
